HIERARCHY
ROOT Hips
{
	OFFSET	0.00	0.00	0.00
	CHANNELS 6 Xposition Yposition Zposition Zrotation Xrotation Yrotation
	JOINT LeftUpLeg
	{
		OFFSET	 0.126116	-0.014019	-0.065224
		CHANNELS 3 Zrotation Xrotation Yrotation
		JOINT LeftLeg
		{
			OFFSET	 0.000000	 0.000000	 0.569914
			CHANNELS 3 Zrotation Xrotation Yrotation
			JOINT LeftFoot
			{
				OFFSET	 0.000000	 0.000000	 0.544423
				CHANNELS 3 Zrotation Xrotation Yrotation
				JOINT LeftToeBase
				{
					OFFSET	 0.000000	 0.000000	 0.207117
					CHANNELS 3 Zrotation Xrotation Yrotation
					End Site
					{
						OFFSET	 0.000000	 0.000000	 0.207117
					}
				}
			}
		}
	}
	JOINT RightUpLeg
	{
		OFFSET	-0.124023	-0.008373	-0.065224
		CHANNELS 3 Zrotation Xrotation Yrotation
		JOINT RightLeg
		{
			OFFSET	 0.000000	 0.000000	 0.570047
			CHANNELS 3 Zrotation Xrotation Yrotation
			JOINT RightFoot
			{
				OFFSET	 0.000000	 0.000000	 0.544354
				CHANNELS 3 Zrotation Xrotation Yrotation
				JOINT RightToeBase
				{
					OFFSET	 0.000000	 0.000000	 0.207540
					CHANNELS 3 Zrotation Xrotation Yrotation
					End Site
					{
						OFFSET	 0.000000	 0.000000	 0.207540
					}
				}
			}
		}
	}
	JOINT Spine
	{
		OFFSET	 0.000184	-0.007763	 0.117403
		CHANNELS 3 Zrotation Xrotation Yrotation
		JOINT Spine1
		{
			OFFSET	 0.000000	 0.000000	 0.137269
			CHANNELS 3 Zrotation Xrotation Yrotation
			JOINT Spine2
			{
				OFFSET	 0.000000	 0.000000	 0.156879
				CHANNELS 3 Zrotation Xrotation Yrotation
				JOINT LeftShoulder
				{
					OFFSET	 0.080501	-0.002496	 0.160144
					CHANNELS 3 Zrotation Xrotation Yrotation
					JOINT LeftArm
					{
						OFFSET	 0.000000	 0.000000	 0.164363
						CHANNELS 3 Zrotation Xrotation Yrotation
						JOINT LeftForeArm
						{
							OFFSET	 0.000000	 0.000000	 0.364576
							CHANNELS 3 Zrotation Xrotation Yrotation
							JOINT LeftHand
							{
								OFFSET	 0.000000	 0.000000	 0.360812
								CHANNELS 3 Zrotation Xrotation Yrotation
								JOINT LeftHandIndex1
								{
									OFFSET	 0.000000	 0.000000	 0.086006
									CHANNELS 3 Zrotation Xrotation Yrotation
									JOINT LeftHandIndex2
									{
										OFFSET	 0.000000	 0.000000	 0.047236
										CHANNELS 3 Zrotation Xrotation Yrotation
										JOINT LeftHandIndex3
										{
											OFFSET	-0.004284	-0.000551	 0.038166
											CHANNELS 3 Zrotation Xrotation Yrotation
											End Site
											{
												OFFSET	-0.004284	-0.000551	 0.038166
											}
										}
									}
								}
							}
						}
					}
				}
				JOINT Neck
				{
					OFFSET	 0.000000	 0.000000	 0.176489
					CHANNELS 3 Zrotation Xrotation Yrotation
					JOINT Head
					{
						OFFSET	 0.000000	-0.001747	 0.077940
						CHANNELS 3 Zrotation Xrotation Yrotation
						End Site
						{
							OFFSET	 0.000000	-0.001747	 0.077940
						}
					}
				}
				JOINT RightShoulder
				{
					OFFSET	-0.080363	 0.000306	 0.159706
					CHANNELS 3 Zrotation Xrotation Yrotation
					JOINT RightArm
					{
						OFFSET	 0.000000	 0.000000	 0.164196
						CHANNELS 3 Zrotation Xrotation Yrotation
						JOINT RightForeArm
						{
							OFFSET	 0.000000	 0.000000	 0.365611
							CHANNELS 3 Zrotation Xrotation Yrotation
							JOINT RightHand
							{
								OFFSET	 0.000000	 0.000000	 0.360648
								CHANNELS 3 Zrotation Xrotation Yrotation
								JOINT RightHandIndex1
								{
									OFFSET	 0.000000	 0.000000	 0.069977
									CHANNELS 3 Zrotation Xrotation Yrotation
									JOINT RightHandIndex2
									{
										OFFSET	 0.000000	 0.000000	 0.052305
										CHANNELS 3 Zrotation Xrotation Yrotation
										JOINT RightHandIndex3
										{
											OFFSET	 0.009002	-0.000782	 0.042196
											CHANNELS 3 Zrotation Xrotation Yrotation
											End Site
											{
												OFFSET	 0.009002	-0.000782	 0.042196
											}
										}
									}
								}
							}
						}
					}
				}
			}
		}
	}
}
MOTION
Frames:    8
Frame Time: 0.03333334
 0.000038	 0.030241	 1.228718	-0.002021	 0.005742	 0.115520	 9.511786	-13.090950	 177.226900	 0.881501	-33.675090	-2.196711	-23.195530	 80.945230	 17.673630	-2.385833	 28.452760	 0.000004	-9.690295	-13.667840	-177.522000	-0.874650	-33.771160	 2.164159	 21.310900	 80.634940	-15.899020	 2.384658	 28.388730	 0.000004	-12.381220	 2.691240	 0.220037	-1.390597	 3.752529	-0.512691	 4.217242	-4.718730	 0.914397	-91.776220	 78.527430	-180.000000	 51.694340	 36.949790	-49.999330	-25.963200	 2.445429	-6.971952	-31.224100	 3.181196	-4.109758	-2.635965	 4.993658	 6.788941	-5.165319	 0.784187	 3.516649	-5.225038	 0.466231	 0.424329	-0.000002	-3.783157	-0.089647	 4.097909	 4.834722	-0.173084	 89.782170	 78.203870	 179.999900	 7.037261	 13.404700	 90.840790	-16.949810	 1.883299	 19.768840	 6.477967	 2.176755	-6.226446	 6.112037	 4.509576	-0.364401	 4.968462	 1.518543	-9.347576	 5.168945	 0.703820	 2.021906
 0.000002	 0.030441	 1.228989	-0.002411	 0.006525	 0.107651	 9.516419	-13.044300	 177.231700	 0.886158	-33.573790	-2.188301	-23.040840	 80.895880	 17.517000	-2.385833	 28.452760	 0.000004	-9.690226	-13.641120	-177.514400	-0.878380	-33.688960	 2.157444	 21.164930	 80.587060	-15.750610	 2.384658	 28.388730	 0.000004	-11.315510	 2.686868	 0.203808	-1.254363	 3.763995	-0.462304	 3.807705	-4.747774	 0.826778	-91.776250	 78.527490	-180.000000	 51.751810	 36.956040	-50.049790	-26.086440	 2.475569	-7.012696	-31.261530	 3.204075	-4.106392	-2.635965	 4.993658	 6.788941	-5.165319	 0.784187	 3.516649	-5.225038	 0.466231	 0.424329	-0.000002	-3.783157	-0.089647	 3.699319	 4.861701	-0.157111	 89.782130	 78.203920	 180.000000	 7.055284	 13.475040	 90.853820	-16.887510	 1.928017	 19.819610	 6.522659	 2.153169	-6.248516	 6.112037	 4.509576	-0.364401	 4.968462	 1.518543	-9.347576	 5.168945	 0.703820	 2.021906
-0.000035	 0.030643	 1.229251	-0.002745	 0.007200	 0.098536	 9.521173	-12.998410	 177.237800	 0.890693	-33.474640	-2.180084	-22.891250	 80.847340	 17.365530	-2.385833	 28.452760	 0.000004	-9.689852	-13.616640	-177.505700	-0.881910	-33.610850	 2.151075	 21.024690	 80.540960	-15.607960	 2.384658	 28.388730	 0.000004	-10.171500	 2.682832	 0.186865	-1.106377	 3.774746	-0.407250	 3.362634	-4.775445	 0.730932	-91.776230	 78.527450	-180.000000	 51.818940	 36.967450	-50.115270	-26.208380	 2.506480	-7.054118	-31.301880	 3.227406	-4.103076	-2.635965	 4.993658	 6.788941	-5.165319	 0.784187	 3.516649	-5.225038	 0.466231	 0.424329	-0.000002	-3.783157	-0.089647	 3.266532	 4.888069	-0.139474	 89.782070	 78.203890	-180.000000	 7.053383	 13.557990	 90.859880	-16.832500	 1.970755	 19.870570	 6.575061	 2.118005	-6.273582	 6.112037	 4.509576	-0.364401	 4.968462	 1.518543	-9.347576	 5.168945	 0.703820	 2.021906
-0.000069	 0.030836	 1.229495	-0.003021	 0.007668	 0.088388	 9.525942	-12.954730	 177.245100	 0.894954	-33.381040	-2.172352	-22.751610	 80.801410	 17.224140	-2.385833	 28.452760	 0.000004	-9.689153	-13.594900	-177.496200	-0.885138	-33.539150	 2.145234	 20.894650	 80.498180	-15.475610	 2.384658	 28.388730	 0.000004	-8.996689	 2.679452	 0.170194	-0.953464	 3.784163	-0.350171	 2.902605	-4.800002	 0.631323	-91.776230	 78.527450	-180.000000	 51.897080	 36.981250	-50.198170	-26.323270	 2.534943	-7.092068	-31.343610	 3.250368	-4.100000	-2.635965	 4.993658	 6.788941	-5.165319	 0.784187	 3.516649	-5.225038	 0.466231	 0.424329	-0.000002	-3.783157	-0.089647	 2.819638	 4.912111	-0.120979	 89.782090	 78.203900	-180.000000	 7.019791	 13.636970	 90.852830	-16.783290	 2.010704	 19.921510	 6.628092	 2.084126	-6.298043	 6.112037	 4.509576	-0.364401	 4.968462	 1.518543	-9.347576	 5.168945	 0.703820	 2.021906
-0.000101	 0.031035	 1.229727	-0.003228	 0.007924	 0.076323	 9.530993	-12.911660	 177.254200	 0.899099	-33.289640	-2.164812	-22.616470	 80.756420	 17.087320	-2.385833	 28.452760	 0.000004	-9.688008	-13.576130	-177.485100	-0.888128	-33.472470	 2.139816	 20.769950	 80.457350	-15.348610	 2.384658	 28.388730	 0.000004	-7.706192	 2.675331	 0.191525	-0.782766	 3.796080	-0.359642	 2.399388	-4.822606	 0.555153	-91.776230	 78.527450	-180.000000	 51.990720	 37.000710	-50.305190	-26.438710	 2.562824	-7.128890	-31.389750	 3.274415	-4.096815	-2.635965	 4.993658	 6.788941	-5.165319	 0.784187	 3.516649	-5.225038	 0.466231	 0.424329	-0.000002	-3.783157	-0.089647	 2.328475	 4.934669	-0.100361	 89.782170	 78.203900	 179.999900	 6.961540	 13.730240	 90.863670	-16.738200	 2.050564	 19.913240	 6.692979	 2.062601	-6.322259	 6.112037	 4.509576	-0.364401	 4.968462	 1.518543	-9.347576	 5.168945	 0.703820	 2.021906
-0.000131	 0.031226	 1.229909	-0.002970	 0.008351	 0.063147	 9.535265	-12.876650	 177.264600	 0.902474	-33.214850	-2.158655	-22.507910	 80.718800	 16.977530	-2.385833	 28.452760	 0.000004	-9.686635	-13.567060	-177.473500	-0.890243	-33.425220	 2.135981	 20.670890	 80.425640	-15.247640	 2.384658	 28.388730	 0.000004	-6.349767	 2.672804	 0.167272	-0.607389	 3.802818	-0.279964	 1.868669	-4.841542	 0.433000	-91.776150	 78.527470	 180.000000	 52.094800	 37.028090	-50.431610	-26.548590	 2.590655	-7.165339	-31.438990	 3.298658	-4.093855	-2.635965	 4.993658	 6.788941	-5.165319	 0.784187	 3.516649	-5.225038	 0.466231	 0.424329	-0.000002	-3.783157	-0.089647	 1.814211	 4.953759	-0.078497	 89.782110	 78.203870	 180.000000	 6.958643	 13.834790	 91.009990	-16.691090	 2.092120	 19.644210	 6.763563	 2.047019	-6.346128	 6.112037	 4.509576	-0.364401	 4.968462	 1.518543	-9.347576	 5.168945	 0.703820	 2.021906
-0.000169	 0.031407	 1.230071	-0.001968	 0.009912	 0.050897	 9.538225	-12.846710	 177.273800	 0.905507	-33.147470	-2.153116	-22.413620	 80.684220	 16.882440	-2.385833	 28.452760	 0.000004	-9.685950	-13.563420	-177.463100	-0.891900	-33.388060	 2.132969	 20.587830	 80.399010	-15.162970	 2.384658	 28.388730	 0.000004	-4.994313	 2.671167	 0.142890	-0.433930	 3.805012	-0.200339	 1.342297	-4.854035	 0.311231	-91.776090	 78.527430	 179.999900	 52.208850	 37.057080	-50.574680	-26.648110	 2.615236	-7.197417	-31.488840	 3.321885	-4.091089	-2.635965	 4.993658	 6.788941	-5.165319	 0.784187	 3.516649	-5.225038	 0.466231	 0.424329	-0.000002	-3.783157	-0.089647	 1.304517	 4.968105	-0.056609	 89.782120	 78.203870	 180.000000	 6.949374	 13.922400	 91.184660	-16.648160	 2.130275	 19.302290	 6.748530	 2.067789	-6.367319	 6.112037	 4.509576	-0.364401	 4.968462	 1.518543	-9.347576	 5.168945	 0.703820	 2.021906
-0.000206	 0.031611	 1.230257	-0.001183	 0.011382	 0.036223	 9.542204	-12.811630	 177.285200	 0.908980	-33.069910	-2.146755	-22.304660	 80.644640	 16.772420	-2.385833	 28.452760	 0.000004	-9.684726	-13.558060	-177.450400	-0.893869	-33.343840	 2.129389	 20.490930	 80.367810	-15.064160	 2.384658	 28.388730	 0.000004	-3.411163	 2.670287	 0.115125	-0.233742	 3.805715	-0.108779	 0.735507	-4.862461	 0.170735	-91.776140	 78.527470	 180.000000	 52.348230	 37.096970	-50.757150	-26.751390	 2.641834	-7.231730	-31.548110	 3.347944	-4.088199	-2.635965	 4.993658	 6.788941	-5.165319	 0.784187	 3.516649	-5.225038	 0.466231	 0.424329	-0.000002	-3.783157	-0.089647	 0.717149	 4.978851	-0.031193	 89.782100	 78.203900	 180.000000	 6.832808	 13.983230	 91.243640	-16.614160	 2.165674	 19.129690	 6.517025	 2.182110	-6.386803	 6.112037	 4.509576	-0.364401	 4.968462	 1.518543	-9.347576	 5.168945	 0.703820	 2.021906
